<svg xmlns="http://www.w3.org/2000/svg" xmlns:xlink="http://www.w3.org/1999/xlink" viewBox="0 0 261.46 468.09"><defs><style>.cls-1,.cls-10,.cls-11,.cls-12,.cls-13,.cls-14,.cls-15,.cls-16,.cls-17,.cls-18,.cls-19,.cls-2,.cls-20,.cls-21,.cls-22,.cls-23,.cls-24,.cls-25,.cls-26,.cls-27,.cls-28,.cls-29,.cls-30,.cls-31,.cls-32,.cls-33,.cls-34,.cls-35,.cls-4,.cls-6,.cls-7,.cls-8,.cls-9{stroke:#fff;}.cls-1,.cls-10,.cls-11,.cls-12,.cls-13,.cls-14,.cls-15,.cls-16,.cls-17,.cls-18,.cls-19,.cls-2,.cls-20,.cls-21,.cls-22,.cls-23,.cls-24,.cls-25,.cls-26,.cls-27,.cls-28,.cls-29,.cls-3,.cls-30,.cls-31,.cls-32,.cls-33,.cls-34,.cls-35,.cls-4,.cls-6,.cls-7,.cls-8,.cls-9{stroke-miterlimit:10;}.cls-1{fill:url(#linear-gradient);}.cls-2,.cls-3{fill:#55b948;}.cls-3{stroke:#231f20;}.cls-4{fill:url(#radial-gradient);}.cls-5{fill:url(#linear-gradient-2);}.cls-6{fill:none;}.cls-7{fill:url(#linear-gradient-3);}.cls-8{fill:url(#linear-gradient-4);}.cls-9{fill:url(#linear-gradient-5);}.cls-10{fill:url(#linear-gradient-6);}.cls-11{fill:url(#linear-gradient-7);}.cls-12{fill:url(#linear-gradient-8);}.cls-13{fill:url(#linear-gradient-9);}.cls-14{fill:url(#linear-gradient-10);}.cls-15{fill:url(#linear-gradient-11);}.cls-16{fill:url(#linear-gradient-12);}.cls-17{fill:url(#linear-gradient-13);}.cls-18{fill:url(#linear-gradient-14);}.cls-19{fill:url(#linear-gradient-15);}.cls-20{fill:url(#linear-gradient-16);}.cls-21{fill:url(#linear-gradient-17);}.cls-22{fill:url(#linear-gradient-18);}.cls-23{fill:url(#linear-gradient-19);}.cls-24{fill:url(#linear-gradient-20);}.cls-25{fill:url(#linear-gradient-21);}.cls-26{fill:url(#linear-gradient-22);}.cls-27{fill:url(#linear-gradient-23);}.cls-28{fill:url(#linear-gradient-24);}.cls-29{fill:url(#linear-gradient-25);}.cls-30{fill:url(#linear-gradient-26);}.cls-31{fill:url(#linear-gradient-27);}.cls-32{fill:url(#linear-gradient-28);}.cls-33{fill:url(#linear-gradient-30);}.cls-34{fill:url(#linear-gradient-31);}.cls-35{fill:url(#linear-gradient-32);}</style><linearGradient id="linear-gradient" x1="14.33" y1="234.05" x2="274.73" y2="234.05" gradientUnits="userSpaceOnUse"><stop offset="0.55" stop-color="#39b54a"/><stop offset="0.59" stop-color="#41b851"/><stop offset="0.66" stop-color="#56c064"/><stop offset="0.75" stop-color="#78cd84"/><stop offset="0.85" stop-color="#a9dfb0"/><stop offset="0.96" stop-color="#e5f5e8"/><stop offset="1" stop-color="#fff"/></linearGradient><radialGradient id="radial-gradient" cx="131.18" cy="130.31" r="98.39" gradientTransform="translate(-0.57 0.25)" gradientUnits="userSpaceOnUse"><stop offset="0" stop-color="#00aeef"/><stop offset="1" stop-color="#2e3192"/></radialGradient><linearGradient id="linear-gradient-2" x1="0.5" y1="130.75" x2="177.17" y2="130.75" gradientUnits="userSpaceOnUse"><stop offset="0" stop-color="#f9ed32"/><stop offset="0.66" stop-color="#ba992c"/><stop offset="1" stop-color="#986d29"/></linearGradient><linearGradient id="linear-gradient-3" x1="96.75" y1="135.07" x2="107.15" y2="135.07" gradientUnits="userSpaceOnUse"><stop offset="0" stop-color="#39b54a"/><stop offset="1" stop-color="#27aae1"/></linearGradient><linearGradient id="linear-gradient-4" x1="89.69" y1="125.27" x2="223.23" y2="125.27" xlink:href="#linear-gradient-3"/><linearGradient id="linear-gradient-5" x1="104.73" y1="133.52" x2="119.67" y2="133.52" xlink:href="#linear-gradient-3"/><linearGradient id="linear-gradient-6" x1="91.01" y1="93.83" x2="103.92" y2="93.83" xlink:href="#linear-gradient-3"/><linearGradient id="linear-gradient-7" x1="140.69" y1="185.71" x2="147.88" y2="185.71" xlink:href="#linear-gradient-3"/><linearGradient id="linear-gradient-8" x1="130.34" y1="178.59" x2="133.76" y2="178.59" xlink:href="#linear-gradient-3"/><linearGradient id="linear-gradient-9" x1="161.52" y1="183.65" x2="167.03" y2="183.65" xlink:href="#linear-gradient-3"/><linearGradient id="linear-gradient-10" x1="177.41" y1="73.24" x2="179.99" y2="73.24" xlink:href="#linear-gradient-3"/><linearGradient id="linear-gradient-11" x1="187.12" y1="63.98" x2="191.5" y2="63.98" xlink:href="#linear-gradient-3"/><linearGradient id="linear-gradient-12" x1="131.41" y1="172.37" x2="133.28" y2="172.37" xlink:href="#linear-gradient-3"/><linearGradient id="linear-gradient-13" x1="136.13" y1="132.2" x2="138.69" y2="132.2" xlink:href="#linear-gradient-3"/><linearGradient id="linear-gradient-14" x1="188.25" y1="187.94" x2="192.51" y2="187.94" xlink:href="#linear-gradient-3"/><linearGradient id="linear-gradient-15" x1="167.17" y1="187.81" x2="172.34" y2="187.81" xlink:href="#linear-gradient-3"/><linearGradient id="linear-gradient-16" x1="165.44" y1="179.62" x2="169.2" y2="179.62" xlink:href="#linear-gradient-3"/><linearGradient id="linear-gradient-17" x1="131.18" y1="126.56" x2="134.77" y2="126.56" xlink:href="#linear-gradient-3"/><linearGradient id="linear-gradient-18" x1="117.06" y1="179.44" x2="119.04" y2="179.44" xlink:href="#linear-gradient-3"/><linearGradient id="linear-gradient-19" x1="151.48" y1="123.68" x2="152.97" y2="123.68" xlink:href="#linear-gradient-3"/><linearGradient id="linear-gradient-20" x1="133.78" y1="133.15" x2="135.51" y2="133.15" xlink:href="#linear-gradient-3"/><linearGradient id="linear-gradient-21" x1="146.79" y1="125.69" x2="147.95" y2="125.69" xlink:href="#linear-gradient-3"/><linearGradient id="linear-gradient-22" x1="139.4" y1="88.55" x2="141.59" y2="88.55" xlink:href="#linear-gradient-3"/><linearGradient id="linear-gradient-23" x1="107.2" y1="120.98" x2="108.6" y2="120.98" xlink:href="#linear-gradient-3"/><linearGradient id="linear-gradient-24" x1="107.21" y1="123.69" x2="108.23" y2="123.69" xlink:href="#linear-gradient-3"/><linearGradient id="linear-gradient-25" x1="142.11" y1="85.61" x2="143.07" y2="85.61" xlink:href="#linear-gradient-3"/><linearGradient id="linear-gradient-26" x1="151.52" y1="121.39" x2="152.34" y2="121.39" xlink:href="#linear-gradient-3"/><linearGradient id="linear-gradient-27" x1="136.28" y1="134.72" x2="137.46" y2="134.72" xlink:href="#linear-gradient-3"/><linearGradient id="linear-gradient-28" x1="127.79" y1="111.37" x2="128.95" y2="111.37" xlink:href="#linear-gradient-3"/><linearGradient id="linear-gradient-30" x1="142.32" y1="145.12" x2="143.03" y2="145.12" xlink:href="#linear-gradient-3"/><linearGradient id="linear-gradient-31" x1="213.29" y1="157.42" x2="215.66" y2="157.42" xlink:href="#linear-gradient-3"/><linearGradient id="linear-gradient-32" x1="146.35" y1="152.54" x2="148.01" y2="152.54" xlink:href="#linear-gradient-3"/></defs><g id="Layer_2" data-name="Layer 2"><g id="Layer_1-2" data-name="Layer 1"><path class="cls-1" d="M.55,130.7c0-81.43,74.76-145.4,159.38-127,44,9.55,88.31,53.88,97.86,97.85,18.37,84.63-45.61,159.38-127,159.38A129.88,129.88,0,0,1,32.6,216.25V462.66a4.93,4.93,0,0,1-4.93,4.93H5.53A4.93,4.93,0,0,1,.6,462.66V131.09"/><ellipse class="cls-2" cx="32.67" cy="216.09" rx="0.07" ry="0.5"/><path class="cls-3" d="M173.93,42.48a98.24,98.24,0,0,1-1.59,177.2"/><circle class="cls-4" cx="130.75" cy="130.7" r="98.5"/><path class="cls-5" d="M43.51,136.59H89.75a1.46,1.46,0,0,1,1.48,1.93l-3,11.14a2.77,2.77,0,0,1-2.52,1.93H45.94a.89.89,0,0,0-.86,1.12A88.22,88.22,0,0,0,166.3,210.64a1.91,1.91,0,0,1,2.5.88l7.56,15.28a1.81,1.81,0,0,1-.86,2.44,109,109,0,0,1-151.82-77,.88.88,0,0,0-.85-.7H2a1.44,1.44,0,0,1-1.47-1.92l3.07-11.15a2.8,2.8,0,0,1,2.53-1.94l14.9-.07a.88.88,0,0,0,.88-.93c-.09-1.77-.13-3.55-.13-5.33q0-2.9.15-5.73a.87.87,0,0,0-.87-.93H4.22a1.46,1.46,0,0,1-1.48-1.93L5.84,110a1.89,1.89,0,0,1,1.81-1.4H24.08l.09-.43c.55-2.56,1.18-5.1,1.9-7.59A108.25,108.25,0,0,1,176.14,32.74a1.81,1.81,0,0,1,.89,2.33c-.71,1.71-1.89,4.53-3.1,7.41l-3.73,8.93-.29.69c-.09.22-.91,0-1.82-.56l-.17-.07-.24-.1a75.44,75.44,0,0,0-31.42-8.13c-2-.11-4.08-.16-6.2-.16a87.59,87.59,0,0,0-84.64,64.85l-.14.54a4.42,4.42,0,0,0,3,1.12l49.67-.1a1.37,1.37,0,0,1,1.38,1.9L96,121.69a2.94,2.94,0,0,1-2.62,1.9H43.5a.87.87,0,0,0-.87.81q-.2,2.92-.19,5.89c0,1.83.05,3.65.16,5.46a.91.91,0,0,0,.91.84Z"/><path class="cls-6" d="M43.51,136.59H89.75a1.46,1.46,0,0,1,1.48,1.93l-3,11.14a2.77,2.77,0,0,1-2.52,1.93H45.94a.89.89,0,0,0-.86,1.12A88.22,88.22,0,0,0,166.3,210.64a1.91,1.91,0,0,1,2.5.88l7.56,15.28a1.81,1.81,0,0,1-.86,2.44,109,109,0,0,1-151.82-77,.88.88,0,0,0-.85-.7H2a1.44,1.44,0,0,1-1.47-1.92l3.07-11.15a2.8,2.8,0,0,1,2.53-1.94l14.9-.07a.88.88,0,0,0,.88-.93c-.09-1.77-.13-3.55-.13-5.33q0-2.9.15-5.73a.87.87,0,0,0-.87-.93H4.22a1.46,1.46,0,0,1-1.48-1.93L5.84,110a1.89,1.89,0,0,1,1.81-1.4H24.08l.09-.43c.55-2.56,1.18-5.1,1.9-7.59A108.25,108.25,0,0,1,176.14,32.74a1.81,1.81,0,0,1,.89,2.33c-.71,1.71-1.89,4.53-3.1,7.41l-3.73,8.93-.29.69c-.09.22-.91,0-1.82-.56l-.17-.07-.24-.1a75.44,75.44,0,0,0-31.42-8.13c-2-.11-4.08-.16-6.2-.16a87.59,87.59,0,0,0-84.64,64.85l-.14.54a4.42,4.42,0,0,0,3,1.12l49.67-.1a1.37,1.37,0,0,1,1.38,1.9L96,121.69a2.94,2.94,0,0,1-2.62,1.9H43.5a.87.87,0,0,0-.87.81q-.2,2.92-.19,5.89c0,1.83.05,3.65.16,5.46a.91.91,0,0,0,.91.84Z"/><path class="cls-7" d="M104,130.78l0-.85c-1.19-.39-1.47.65-2,1l.59.82c-.11,0-.26,0-.34.11a1.55,1.55,0,0,1-2.13,0c-.43-.28-.74,0-.89.41,0,.16-.12.32-.18.49l.56.43-1.17.72c.27.94,1.13,1,1.7,1.34l-1.59,1.48.14.24,1.21-.28.3.77c-1.37-.76-2.23.39-3.34.54l.8.3-.92.44,0,.21.79.22c.14.24.23.36.29.49s.14.5.3.59a2.15,2.15,0,0,0,2.08-.43,4.15,4.15,0,0,0,.8,0c.62-.13,1.22-.35,1.84-.44a4.85,4.85,0,0,1,1.19.15,6.57,6.57,0,0,1,.44-.88,5.85,5.85,0,0,0,.94-3.38,3.34,3.34,0,0,1,.36-1.8l0,.61c.67-.44,1.28-.73,1.34-1.56l-.55-.29a1.13,1.13,0,0,0-.15-1.62c-.42-.28-1.1-.18-1.6-.25l0-.63c-.14.19-.29.37-.43.55Z"/><path class="cls-8" d="M124.87,144.39c-.44.07-.88.17-1.32.21s-.88,0-1.31,0A3.09,3.09,0,0,0,121,145c-.17.11-.09.62-.12.95l-.41-.64c-1.44.06-1.69.23-1.9,1.36a2.09,2.09,0,0,1-1.5,1.69,7.11,7.11,0,0,0-1.33.57s0,.13-.08.19l.53.35-1.09.31c-.68.2-2-.27-2.23-.84s-.55-.59-1-.52l.39,3.17a7.38,7.38,0,0,0-1.6-.17,1.43,1.43,0,0,1-1.44-.73,1.23,1.23,0,0,0-.91-.27,5.55,5.55,0,0,0-1.1.28l-1.26.25s-.06.11-.12.23l.49.16c-.06.33,0,.63-.15.81-.35.47,0,.6.3.74a9.72,9.72,0,0,1,1.44.61c.38.23.63.58,1.16.63.35,0,1,.24.68.89l1.08.31a3.5,3.5,0,0,0-.45.79c-.25,1,.31,1.53,1,2,.22.16.52.48.49.67a4,4,0,0,0,.47,2.58s-.06,0-.1.08l-.49-.53a1.3,1.3,0,0,0-.1.26,19.57,19.57,0,0,1-.26,2,6.71,6.71,0,0,1-.63,1.46c-.4.77-.28,1.85-1.33,2.24,0,0,0,.22,0,.34a16.92,16.92,0,0,0-1.7-.71c-.92-.28-1.86-.5-2.8-.73s-1.84-.42-2.74-.69a9.21,9.21,0,0,0-1.84-.65,5.66,5.66,0,0,1-3.22-1,1.09,1.09,0,0,0-1.62.25,1.15,1.15,0,0,1-.69.27c-.29,0-.59,0-.88,0-.66.07-.76.35-.55,1,.29.84.72,1.71,0,2.56,0,0,0,.14,0,.21,1.54-.11,1.54-.11,1.5.33-.11-.08-.25-.25-.42-.28-.81-.13-1.1.14-1.2,1a9.93,9.93,0,0,1-2.83,6A1.93,1.93,0,0,0,90,177c.18.28.62.39,1,.61l-1.32,4c.51.15,1,.33,1.58.45a8.47,8.47,0,0,0,1.33.16,5.57,5.57,0,0,1,1.43.08,1.83,1.83,0,0,1,1.4,1.68,4.36,4.36,0,0,0,.47,1.58c.35.72,1.2,1,1.68.58a5.07,5.07,0,0,1,3.63-.94,15.37,15.37,0,0,1,3.75.54,1,1,0,0,0,1.36-.66,2.1,2.1,0,0,1,2-1.18,1,1,0,0,0,.69-.41c.54-.84,1-1.74,2-2.12.23-.08.4-.32.56-.46-.31-.36-.68-.62-.81-1a2.06,2.06,0,0,1,.67-2.35,14.25,14.25,0,0,0,1-1.08c1-1.15,2-2.33,3.68-2.6a7.66,7.66,0,0,0,2.85-1.4c.34-.23.37-.91.54-1.39a7,7,0,0,0-1-.33c-.57-.08-1.14-.09-1.72-.14h1.48a3.5,3.5,0,0,0,0-.8,1.17,1.17,0,0,1,.69-1.62,12,12,0,0,1,1.79-.73c.28-.07.65.24,1,.37.16.07.35.22.48.19a2.63,2.63,0,0,1,2.16.68,1.5,1.5,0,0,0,1.77-.12c.74-.51,1.4-1.14,2.1-1.72.07-.06.18-.19.22-.17.8.32,1.14-.18,1.51-.75.53-.82,1.15-1.13,1.83-.84.84.36,1.64.81,2.44,1.25a.78.78,0,0,1,.26.44c.42,1.27.68,2.61,1.83,3.5a1.38,1.38,0,0,1,.32.52,4.27,4.27,0,0,1,1,.46c.75.66,1.45,1.39,2.18,2.08a2.62,2.62,0,0,0,2.36.94c.66-.12,1,.38,1.38.76a3,3,0,0,0,1.44.87c.54.07.81.26.91.71.17.77.67.93,1.36.91a.64.64,0,0,1,.53.33c.57,1.17,1.09,2.35,1.63,3.52a4.62,4.62,0,0,0-1.06,2.12,2.29,2.29,0,0,0,.33.71,3.74,3.74,0,0,0,.66-.51c.2-.25.26-.65.5-.83a1.14,1.14,0,0,0,.41-1.06,1.22,1.22,0,0,1,.46-.81,1.08,1.08,0,0,0,.18-1.8c-.25-.24-.57-.41-.81-.66s-.41-.46-.37-.63a7.28,7.28,0,0,1,.67-1.75.91.91,0,0,1,.81-.33c.78.41,1.87.27,2.33,1.28.05.11.28.14.52.25,0-.32.18-.66.07-.79a5.42,5.42,0,0,0-1.61-1.56,38.69,38.69,0,0,0-4.34-1.57c-.63-.2-.67-.43-.28-.9A1.46,1.46,0,0,0,148,172a4.17,4.17,0,0,0-.61,0c-.56.08-1.26.45-1.64.23-1.26-.72-2.63-1.45-3.11-3a4.51,4.51,0,0,0-2.44-2.82c-1.5-.74-1.84-1.67-1.2-3.22-.79-.91-.67-1.3.5-1.75.64-.26,1.24-.6,1.89-.92a4.5,4.5,0,0,1-.27-.78,9.19,9.19,0,0,1,0-1c.15.57.13,1.32.49,1.66.59.55.83.84.12,1.11l2.55.24a17.56,17.56,0,0,0-2-.07c-.22,0-.63.43-.59.55a8.19,8.19,0,0,0,.75,1.38l.82-1.94c.45.38,1.07.64,1.18,1a2.72,2.72,0,0,0,1.56,2c-.77.24-.62.53-.29.81.58.48,1.16.95,1.76,1.41a.49.49,0,0,0,.36,0,2.6,2.6,0,0,1,2.28.6,6.13,6.13,0,0,0,2.22,1.37,7,7,0,0,1,1.49.76l.18-.17-.4-.84.51-.22c-.13.82-.16,1.61.85,2a3.94,3.94,0,0,1,.92.67c.12.1.27.25.28.38,0,1,0,1.9.09,2.85a3.22,3.22,0,0,0,.43,1.67c.46.52,1.37.56,1.73,1.31,0,.06.28,0,.43,0a6.56,6.56,0,0,0,1.39,1.86s0-.05.06,0l1,.26,0,.27-.59.32.91,1.09a24.51,24.51,0,0,0,2.55-.35,4.09,4.09,0,0,1,2.47.13l.11.75c.84-.85,1.55,0,2.55.1-.31-.59-.43-1.2-.76-1.35-1-.45-2.06-.71-3.08-1.07a6.3,6.3,0,0,1-.95-.54l1.09-.45c-.34-.51-.61-1,.41-1.14a7.68,7.68,0,0,1-.78-.54,3,3,0,0,1-1.26-2.53c0-.15.4-.43.47-.38.64.33,1.25.73,1.85,1.1l0-.28,1.25-.86-1.12-.64a6,6,0,0,1,3.14-1.82,7.94,7.94,0,0,1,2.11.07,1.58,1.58,0,0,0,.55-.16,3.17,3.17,0,0,0,.49.17c.31.06.63.1.94.14l.13.24c.36-.44.7-.9,1.09-1.31a4.7,4.7,0,0,1,.79-.6,17.09,17.09,0,0,1,1.75-.91,2.49,2.49,0,0,1,1.38-.24,4.24,4.24,0,0,1,1.29.76c-.34.56-1.31.14-1.77.77l.58.34a4.26,4.26,0,0,1-.85.34c-.7.13-1.42.17-2.11.31a1.31,1.31,0,0,0-.8.45,1.41,1.41,0,0,1-1.23.81c-.94.08-1.36.59-1.29,1.25l1,.31-.58.79,1,1.54-.69.76,1.05.75-1.28.48-.5-1c-.05.29.12.6,0,.79-.3.68,0,.53.45.45.68-.14,1.86.9,1.77,1.5-.06.45-.11.89-.17,1.37,1,0,1.19.49,1,1.25h.78l-.21.43a7.71,7.71,0,0,0,1.81.38.65.65,0,0,1,.73.54c.29.92.73,1.17,1.7.95a4.64,4.64,0,0,1,1.07-.26c.48,0,.59-.25.63-.62a2.24,2.24,0,0,0,0-.73c-.13-.6.17-.82.69-.85a3.69,3.69,0,0,1,.81.06,6.61,6.61,0,0,1,3.31,1.69,1.64,1.64,0,0,0,2,.33c1.14-.52,2.33-1,2.81-2.23.28-.71.67-.74,1.24-.53a4.09,4.09,0,0,1,.75.31c.51.29.84.2,1.14-.33a6.43,6.43,0,0,1,.88-1c.79.88.74,1.43-.12,2.31l.63,1.28.92-1.64a9.1,9.1,0,0,1-.12-1.25c0-.62.34-.74.88-.5a2,2,0,0,0,2.34-.59,1,1,0,0,1,1.41-.34,3.45,3.45,0,0,0,3.85-.73,4.64,4.64,0,0,1,3.36-1.72c.71,0,1.29-.26,1.43-1.09l.93.53.44-1c.53,0,1,0,1.56,0s1,.08,1.28-.16c.68-.65,1-.4,1.24.35l.81-.73c-.24-.47-.45-.9-.7-1.32a.56.56,0,0,0-.38-.28c-.72-.08-.69-.55-.64-1.08a1.54,1.54,0,0,0,0-.74c-.49-1.13-1-2.24-1.52-3.37.81-.32,1-.59.95-1.81a3.29,3.29,0,0,0,.69.23c.68,0,1.43.53,2-.17a9.25,9.25,0,0,0,1-1.44c.6-1.05,1.17-2.11,1.75-3.18,1.22.26,1.12,1.53,1.84,2.16.51-.14,1.06-.43,1.66,0,.06.06.09.05.06,0-.6-1.51-.87-3.12-1.33-4.67a.68.68,0,0,1,.29-.86c.38-.28.73-.6,1.06-.88-1.27-.24-2.46-.55-3.67-.68s-2.05-1.2-3.11-1.67c.24-.43-.38-.57-.65-.82-.51-.45-.93-1.28-1.83-.63a7.4,7.4,0,0,1-.67-.75,1.47,1.47,0,0,0-1.65-.8c-.21,0-.64-.33-.76-.61a12.14,12.14,0,0,1-.64-2,5,5,0,0,1-.34-1.71,2.71,2.71,0,0,0-1.19-2.73.92.92,0,0,1-.38-.7c.15-.76-.24-1.13-.85-1.4a5,5,0,0,1-.86-.44c-.72-.52-1.32-.5-1.8.3,0,0-.09,0-.3.12l-.87-1.45c-.38.71-.62.83-1,.56a1.53,1.53,0,0,1-.58-1.76.93.93,0,0,0-.16-1.07,8.09,8.09,0,0,1-.79-1.32c-.52-1.2.37-2.15.58-3.27.9.39,1.25,1.47,2.41,1.69a6.32,6.32,0,0,0-.48-.88,1.64,1.64,0,0,1,0-2c.56-1,1.33-1.86,1-3,.39-.16.92-.26.93-.4a3.11,3.11,0,0,1,1.05-2.23c.06-.05,0-.19.07-.28.09-.47.3-.55.73-.31a1.19,1.19,0,0,0,.85.16c.64-.22,1,0,1.47.75,0,0,0,.05.08,0a9.56,9.56,0,0,1,6.49-1.12c.78.11,1.54.32,2.32.44a1.38,1.38,0,0,0,1.68-1.76c-.1-.48-.08-1-.15-1.47s0-1.25-.35-1.61c-.77-.86-.31-2.1-1.07-2.9.28-.73-.3-1.13-.63-1.62a6.73,6.73,0,0,1-.78-1.16c-.89-2.26-2-4.44-2.42-6.88-.07-.41-.19-.81-.3-1.22-.75-2.8-2.71-5-3.91-7.54a1.05,1.05,0,0,0-.2-.27,10.72,10.72,0,0,1-3.54-4.56c-.79-2.25-1.81-4.42-2.48-6.71-.78-2.66-1.33-5.4-1.88-8.12a16.78,16.78,0,0,1-.44-4.1,10.17,10.17,0,0,1,2.5-6,6.06,6.06,0,0,0,1.14-4.54s0,0,0,0q-1.63-.75-3.3-1.38c-.84-.32-1.74-.5-2.55-.88-2.09-1-4.34-1-6.57-1.18-.38,0-.5.15-.35.5.06.15.14.3.24.5-.59.38-.38.69,0,1.09.78.76,1.49,1.59,2.27,2.45-.6.63-1.55,1.25-.39,2.29l-.8.5c-.33-.44-.64-.85-.93-1.27s-.5-.77-.75-1.16l-.32,0c-.25.58-.46,1.17-.75,1.71-.15.27-.43.61-.68.64a1.79,1.79,0,0,0-1.71,1.12c-.19.47-.41.93-.63,1.43L188,74c-.56,1.29-1.09,2.5-1.61,3.71a.62.62,0,0,0-.07.41,9.14,9.14,0,0,0,1.42,3.29A7.59,7.59,0,0,1,189,83.71a3.75,3.75,0,0,1,0,1.3l-.23.08c-.36-2.54-2.1-4.31-3.29-6.38a1.11,1.11,0,0,1-.06-1c1-1.33.17-3.08,1.08-4.4a.4.4,0,0,0,0-.28l-.54-1.64c-.29.3-.56.47-.66.71-.25.56-.41,1.16-.64,1.73-.09.21-.22.49-.41.57a2.85,2.85,0,0,0-1.3,1.62c-.25.54-.54,1.06-.75,1.61-.35.95-.87,1.88-.34,2.95a2.11,2.11,0,0,1,.33,1.19,3.32,3.32,0,0,1-.63,1.63c-.41.48-1,.15-1.35-.23a3,3,0,0,0-1.83-.83,1.06,1.06,0,0,1-.57-.48c-.39-.69.11-1.23.41-1.77a1.31,1.31,0,0,0-.76-2.08c-1.15-.48-2.17.23-3.23.09a11.64,11.64,0,0,1,1.57,2,10.32,10.32,0,0,1,.63,2.56.9.9,0,0,0,.71.87,1.67,1.67,0,0,1,.89.68c.66,1,.42,2.2.45,3.41-.41-.09-.76-.19-1.12-.25a1.89,1.89,0,0,0-2,.67,12.53,12.53,0,0,0-1.73,4c-.07.2.14.61.35.8.87.79,1.77,1.55,2.69,2.28A.91.91,0,0,1,177,96.3a4.85,4.85,0,0,0-3.1-.9,34.69,34.69,0,0,1-4.13-.33l-1.55,1c.61.28,1.12.51,1.62.76s.7.35,1.08,0a.72.72,0,0,1,.55.25c.2.36.51.87.39,1.16s-.7.48-1.07.7a1.22,1.22,0,0,1-.32.2.76.76,0,0,1-.47,0c-.76-.37-1.5-.78-2.25-1.18-.78.48-1.45.43-1.62-.17-.24-.85-.4-1.72-.6-2.58a1.66,1.66,0,0,1,.3-1.5.89.89,0,0,0,.08-.61c-.14-.92-1-.74-1.6-1.08l-.57.89c-.36-.49-.66-.93-1-1.36s-.62-.79-.89-1.21a7.65,7.65,0,0,1-.38-.82l.23-.11,1,1.15,1-.59.06.25c.4,0,.81-.07,1.22-.07h0c.81.21,1.6.48,2.41.67a3.07,3.07,0,0,0,.85-.06c.4,0,.8-.11,1.19-.11s.94.26,1.21.08c1.08-.67,2.26-1.35,2.66-2.66a3.21,3.21,0,0,0,0-2.26c-.63-1-1.23-2.16-2.66-2.44-1.14-.23-2.12-1.08-3.38-.93a.73.73,0,0,1-.46-.2,5.14,5.14,0,0,0-3.33-1.2,8.37,8.37,0,0,0-1,0,3.44,3.44,0,0,0-.76.16,9.12,9.12,0,0,1-.9.23c-.25,0-.71.07-.74,0-.18-.51-.53-.34-.85-.26-.67.18-1.05-.18-1.47-.68l1.72-.14,0-.29-1.8-.71c-.09.57-.12,1.22-.92,1a3.21,3.21,0,0,1-.19.81,4,4,0,0,1-.55.69c0-.44.2-1-.63-.85l.13-.52-1.57-.61v-.31a1.65,1.65,0,0,0,2.23-1.19c-.77-.28-1.56-.57-2.35-.82-.05,0-.26.27-.27.43s.15.46.09.64a.61.61,0,0,1-.47.39c-.32,0-.57-1-.32-1.18.48-.38.08-.5-.32-.88-.14.62-.27,1.08-.35,1.55s0,1-.57,1.23l-.32-1.5h-.14l-.84,3.14-.31-.06.22-2.56-.86-.22a3.41,3.41,0,0,1,0,.72c-.07.33-.1.8-.32.93a1.42,1.42,0,0,0-.6,1.33c0,.2,0,.4-.06.79l-.54-.68h-.65l.5,1.87-1-.83-1.07,2.21-.18-1.59-.2,0-.23,1.39H145l-.29-1c-1,.91.4,1.38.27,2.22l-.6-.54c-.48.36-1.11.45-1.33,1-.07.19-.2.48-.12.6.43.64,0,.88-.45,1.16-.2.13-.42.24-.63.37l.07.11H143l-.38.74c-1-.19-1-.19-.88.74a2.7,2.7,0,0,1-.07.63s-.11.08-.19.13l-.3-.37a1.37,1.37,0,0,0-.06,1.8l-1.11.17c-.38.85-.82,1.73-1.17,2.64a13.33,13.33,0,0,0-.45,1.77c-.31.07-.41.41-.17.91.06.11.07.36,0,.39-.71.39-.51,1-.39,1.64l-.41,0,0,.63-1.25,1.17.33.15-.28,1.13c-.76-.25-1,.32-1.31.85s-.46,1-.69,1.53l.32.82,1.66-1.12.11.14-1.86,1.82-.54-1c-.16.31-.25.48-.33.66a2.69,2.69,0,0,0-.12.34c-.11,0-.25,0-.3-.12-.29-.44-.56-.13-.67.08a1.47,1.47,0,0,1-1,.78c-.18.05-.29.39-.43.6l-.09.15-.57,0c-.16.65,1.09.47.56,1.22l-1.27-.09-.11,1.46-.51-.64a4.4,4.4,0,0,0-.06.88,5,5,0,0,0,.3.87,5,5,0,0,0-1.1,0,1.05,1.05,0,0,0-.65.45,1.94,1.94,0,0,0-.11.87,2,2,0,0,0,.09.82c0,.07.42,0,.65,0s.55-.07.84-.11l.4-.6.14.63c1.08.44.63-1,1.29-1l.1,1.09-1,1.21c-.26-.81-1.65-1-2.46-.49L127.5,116l.71-.17c-.66,1-.66,1-.07,1.8a5.06,5.06,0,0,0,.66-.86c.3-.7.72-.69,1.22-.39l-1.86,2.32,1,.08a6.89,6.89,0,0,1-1.21.66c-.48.15-.69.37-.55.84l1.5-.48a3.32,3.32,0,0,1-.18.83c-.24.45-.16,1.14-.89,1.25-.06,0-.12.19-.16.3-.29.81.35,1.2.79,1.65a2.63,2.63,0,0,0,.85.36l.09-.18.12.68.14-.16a6.52,6.52,0,0,0,.68.38.65.65,0,0,0,.51,0,3.64,3.64,0,0,0,.59-.64c.6.17,1.57-.91,2.46-2.78.31,0,.73,0,.82-.09.19-.3.4-.79.27-1a1.46,1.46,0,0,1,.13-1.42c.06-.14.25-.22.38-.33a1.33,1.33,0,0,1,.05.48,2,2,0,0,0,.7,1.94,5,5,0,0,1,.7.89l-.58.25a2,2,0,0,0,.05.38c.29.76.59,1.52.89,2.27.16.39.48.79.46,1.16a3.66,3.66,0,0,0,1.18,2.89c.54.56.5.78-.28,1.1l.81,3.22c.61-.1,1.31-.2,2-.35.12,0,.26-.29.26-.45.05-1.27.38-1.6,1.65-1.8.31,0,.81-.28.85-.5.25-1.35.43-2.73.56-4.1,0-.47-.29-1-.11-1.41a1.25,1.25,0,0,0-.34-1.68l.45-.24-1-.57a2,2,0,0,0,2-1.44c0-.08.24-.17.27-.14.5.44.55-.22.8-.35.09,0,.09-.28.13-.43a1.73,1.73,0,0,0-.45,0,3.55,3.55,0,0,1-1.05.15,7.22,7.22,0,0,1-1.39-.56c.31-.53,1.59-.61,2.41,0,.71-.48,1.44-1.1,1.19-2-.19-.65-.89-1.16-1.4-1.69-.11-.11-.41,0-.61,0-.43,1.29-1,1.76-1.76,1.52.36-.34.76-.66,1.1-1a.94.94,0,0,0,.25-.64c0-.39-.21-.76-.29-1.15a14.73,14.73,0,0,1-.37-2.07c0-.36.26-.73.26-1.1,0-.7-.08-1.41-.13-2.12,1-.07.38-.81.52-1.22a1.32,1.32,0,0,0,.55-.46,9.24,9.24,0,0,1,.65-1.34,9.22,9.22,0,0,1,1.27-1.14,5.48,5.48,0,0,0,1.52-2.8c.11-.38.21-.66-.12-1a1.15,1.15,0,0,1-.11-1c.31-.77-.24-1.71.48-2.39,0,0-.1-.23-.06-.15.2-.31.28-.46.38-.59s.22-.38.36-.4c.56-.12,1.13-.16,1.73-.24l-.18-.58a2.71,2.71,0,0,0,.66.44c1.26.41,1.68,1.48,2.05,2.57,0,.13-.18.44-.35.51a.87.87,0,0,0-.61.89,2.3,2.3,0,0,1-.19.76c-.44,1.11-.87,2.22-1.35,3.31-.3.67-.46,1.47-1.18,1.59a5.86,5.86,0,0,1-.35.71c-.52.81-.68,1.1-.22,2.08a5.06,5.06,0,0,1,.24.89,6.13,6.13,0,0,0,.32,1.39A4,4,0,0,1,151,113c-.07.94.13,1.51,1,1.87.48.2,1,.34,1.52.52l.62,1c.15-.19.27-.39.32-.38.62.22,1-.3,1.42-.55a25.4,25.4,0,0,0,2.36-2.06,2.32,2.32,0,0,1,2.56-.36l.44-.69c.19.26.29.48.22.61-.27.47,0,.74.31,1a4.67,4.67,0,0,0,.84.55c.48.23,1.06.46.71,1.1s-.82.14-1.18-.07c-.52-.28-.91-.29-1.2.27.35.74.25.87-.45.88-.35.32-.58.69-.79.69-.47,0-.44.18-.44.52a4.28,4.28,0,0,0,1.14,3.08,5,5,0,0,1,.53.8l-.24.24c-.23-.2-.47-.38-.69-.59a6.53,6.53,0,0,1-.55-.63c-.43-.53-1.3-.82-1-1.76a1.39,1.39,0,0,0,.21-.1l.51-.38a2.06,2.06,0,0,0-.59-.23,13.9,13.9,0,0,0-2,0,3.5,3.5,0,0,0-2.42,1.15,1.69,1.69,0,0,1-.64.45c-.4.14-.67.27-.5.78a11,11,0,0,1,.57,2c.09.66.52.62.94.59.19,0,.36-.21.55-.34.31.25.58.45.28.9-.09.14,0,.41,0,.62a14,14,0,0,1,0,1.45c-.06.47-.73.9-1.09.69a23,23,0,0,1-1.9-1.31c-1,.65-1.09.8-1.15,1.55,0,.28.07.57,0,.85-.06.92-.17,1.83-.24,2.75a2.88,2.88,0,0,0,.18.68l.48-.53c.39.32-.06,1.2.7,1.08-.09.14-.24.32-.34.51s-.17.63-.36.71-.48-.16-.74-.25-.33-.08-.66-.15l.39.69a12.28,12.28,0,0,1-1.23,1c-.18.11-.49,0-.74,0a4.28,4.28,0,0,0-1.29-.17,11.85,11.85,0,0,0-2,.82,2.36,2.36,0,0,0-.55.46,2.57,2.57,0,0,1-.57.44c-.92.36-1.86.68-2.79,1,.28.76.18,1-.27.92s-.84-.27-.92-.53c-.24-.75-1.09-.69-1.44-1.24,0-.07-.24-.09-.33-.05a5.51,5.51,0,0,0-1.82.81c-.5.5-1,.45-1.79.65l.53-1.19a7.88,7.88,0,0,1-1.4-.18.74.74,0,0,1-.43-.57c0-.47-.2-.61-.56-.69l-.92-.21,1.1-.11c-.61-.88.14-3,1-3.4l.18-.92c.65.17,1,0,1-.65a2.55,2.55,0,0,0-.62-.28c-.63-.08-.6-.56-.42-.89.29-.54,0-.65-.35-.67a3.13,3.13,0,0,0-.53,0c-2,.19-2.92.82-3,2.32a13.78,13.78,0,0,0,.17,2c0,.11.15.24.26.3a1.21,1.21,0,0,1,.6,1.31c-.05.44,0,.82.51,1-.4-.06-.48.11-.31.46s.34.51.27.62c-.47.72.08,1.3.21,2-1.33-.15-.73.82-.77,1.37l-.8-.28c-.23-.27-.51-.6-.8-.61a3.2,3.2,0,0,0-1.07.44l.77.85c-.67-.33-.78.13-.92.53,0-.84-.21-1.17-.84-1.09a8,8,0,0,1-.82.1c-.8,0-1.29.64-1,1.24a1.87,1.87,0,0,1,.07.82,7.63,7.63,0,0,1-.26,1c-.69,0-.93-.36-.68-1.05a3.09,3.09,0,0,0,.09-.53l-.25,0c-.11.29-.2.58-.33.87-.2.45-.43.89-.65,1.34-.11.25-.22.49-.34.74l.86.23a2.13,2.13,0,0,0,.25,0l0,.17-1.72.53a2.5,2.5,0,0,0,.91.18Z"/><path class="cls-9" d="M109.31,123.9c-.37.63-.73,1.2-1,1.8a2.2,2.2,0,0,0-.09.7l.6-.06.39-.06c-.33.85-1.12,1.47-1,2.41l.72-1.07.18.11-.2.55.77.11c-.16.45-.44.84-.34,1,.29.59-.06.93-.31,1.34l-.72,1.15.91.42,2.63-.23c-.47.64-1.25.95-1,1.84.18.62.54,1,1.32.59a10.81,10.81,0,0,0-.75,2.33c-.06.56-.24.61-.66.55-.24,0-.51-.17-.72-.11-.6.16-1.19.41-1.78.62l.07.21a1.22,1.22,0,0,1,.27,0,1.31,1.31,0,0,1,.25,0c.67,2.35-1.21,2.46-2.55,3,.06.55.06.55,1.18.54.33.28.62.66.76.62.45-.16.58.07.72.38.26.55.59.64,1.1.24a6.11,6.11,0,0,1,1.12-.52,1.94,1.94,0,0,1-2,1.52,2.09,2.09,0,0,0-1.27,0c-1.09.76-2.1,1.64-3.14,2.47l0,.19c.25,0,.56,0,.74-.16a1.75,1.75,0,0,1,2.1-.15c.61.38.86.2,1.08-.39s1.51-.62,1.8-.23.78.38,1.24.23c.13,0,.27,0,.4-.07l1.29-.26c1.72.91,5.11.55,5.19-.74l-.26-.08-1-.35a2.89,2.89,0,0,1,.44-1.14,5.52,5.52,0,0,1,1.26-.72,2.17,2.17,0,0,0,.56-2.16,1.3,1.3,0,0,0-1.51-.77,3.9,3.9,0,0,0-.85.41l-.77-.4c1.84-1.07.29-1.9-.29-3l1,.6c-.27-.78-.48-1.36-.69-2s-.4-1.12-1.07-1.29a.42.42,0,0,1-.25-.24,10.06,10.06,0,0,1-.39-2.07,3.06,3.06,0,0,0-1.36-2.45c-.12-.1-.31-.09-.47-.14l-.86-.28.87-.47a1,1,0,0,1,.23-.08l-.21-.56a5,5,0,0,0,.81-.77,21.6,21.6,0,0,0,1.35-2.07,1,1,0,0,0-.14-.77c-1.14-.14-2.26-.8-3.37-.16-.52-.45.11-.74.09-.81-.28-.87.53-.81.88-1.14s1.1-.53,1-1.3l-2.54-.31a.34.34,0,0,0-.27.08c-.36.52-.69,1-1,1.57-.18.25-.51.42-.68.69a2.9,2.9,0,0,0-.22,1Z"/><path class="cls-10" d="M91.07,91.48a2.57,2.57,0,0,1,2.54.39l-1,.63.06.18.81-.05.09.19a2,2,0,0,1-.64.32c-.58,0-1.17,0-1.76,0v.32c.4,0,.89,0,1.18.18s.27.67.39,1l.81-.23,0,.15-.7.49.94.11-1.79,1.4h2c.23.29.55.71.89,1.12a.23.23,0,0,0,.11.08c.41.16.81.34,1.23.47.6.18,1.21.37,1.52-.47.05-.11.32-.17.49-.22a4.8,4.8,0,0,0,2.23-.9,1.89,1.89,0,0,1,.93-.52c1-.14,1.16-.3,1.15-1.22.94.48.71-.28.73-.76l.44.15.13-.12-.36-.45c.09-.42.29-.8.19-1.07s-.57-.18-.89-.26l.23-.45-.71-.08.3-.55c-.48-.63-.89-1.19-1.32-1.73a2.17,2.17,0,0,0-.48-.35l-.48,1.39-.78-.39c-.46,1.4-.84-.33-1.32,0l.2,1.47-.19,0-.69-1.72c-.86.09-.82.78-1,1.32l-.21,0-.73-1.48-.28,2.2-.63-.53-.45,1-.71-1.76.51-.07L94,90.4a1.77,1.77,0,0,1-.15-.31c-.26-.87-.34-.92-1.21-.68.58.85.57.89,0,1.09l-.93-1.12-.24.74a1.64,1.64,0,0,0,.23.16,2.09,2.09,0,0,0,.35.13L92,90.7l-1,.48s0,.06,0,.15A.36.36,0,0,0,91.07,91.48Z"/><path class="cls-11" d="M147.88,183.47a3.64,3.64,0,0,0-.5,0c-1.14.33-2.27.69-3.42,1-.19.05-.43-.09-.64-.14a5.52,5.52,0,0,0-1.16-.26,6.25,6.25,0,0,0-1.3.32c-.36.69-.15,1.2.74,1.39a3.44,3.44,0,0,1,.77.24c1.21.59,2.4,1.24,3.62,1.79a3.56,3.56,0,0,0,1.19.09c0-.44,0-.89.07-1.33,0-.07-.06-.14-.07-.21a2.17,2.17,0,0,1-.08-.86C147.3,184.87,147.59,184.22,147.88,183.47Z"/><path class="cls-12" d="M130.34,176.28c.12.32.2.53.29.74a3.24,3.24,0,0,1,.39,1c0,.74-.08,1.48-.09,2.22a3.26,3.26,0,0,0,.17,1.21c.37.91.75.93,1.36.15.09-.13.28-.31.38-.28.87.22.79-.41.82-.9a22.77,22.77,0,0,0,.08-2.86c-.06-.92-.09-1.93-1.09-2.46C131.06,176.33,131.06,176.33,130.34,176.28Z"/><path class="cls-13" d="M163.28,185.62l.25-.08.46-.88,1.19,1.39c.2-1,.24-1,1.1-.33a1.44,1.44,0,0,0,.36.15l.15-.12-1.44-2.88,1.12.48L167,183c-.38-.33-.67-.58-.95-.84s-.3-.41-.46-.42c-1.17-.11-2.37-1-3.48.1a2.14,2.14,0,0,0-.62,1c0,.19.36.55.63.67.54.24.84.5.79,1.15A2.8,2.8,0,0,0,163.28,185.62Z"/><path class="cls-14" d="M177.41,71.38a14.8,14.8,0,0,1,.22,1.9c0,.86.64,1.24,1.14,1.71.35.33,1.26-.14,1.22-.64,0-.68,0-1.44-.7-1.9-.33-.2-.58-.52-.91-.73A4.81,4.81,0,0,0,177.41,71.38Z"/><path class="cls-15" d="M191,65.48c.22-.13.49-.2.54-.34a.64.64,0,0,0-.21-.55c-.77-.61-1.56-1.2-2.37-1.76a2.17,2.17,0,0,0-1-.34c-.49-.08-1,.57-.75.88s.9.94,1.36.95a2.65,2.65,0,0,1,1.36.56C190.26,65.06,190.59,65.27,191,65.48Z"/><path class="cls-16" d="M133.06,170.41a4.6,4.6,0,0,1-1.09.66c-.61.18-.59.63-.52,1a8.44,8.44,0,0,0,.48,1.72c.08.21.36.34.54.5a3.49,3.49,0,0,0,.47-.56A5.29,5.29,0,0,0,133.06,170.41Z"/><path class="cls-17" d="M138.3,130.41c-1.09.25,0,1.07-.59,1.48-.54.16-.63-.3-.64-.78l-.94.82c0,.07.19.2.18.32-.2,1.37,1.21,1.07,1.62,1.74l.56-.91c0-.41-.21-.85-.07-1C138.93,131.44,138.62,131,138.3,130.41Z"/><path class="cls-18" d="M192.51,186.78a5.94,5.94,0,0,1-1.87.53,4.19,4.19,0,0,0-2.39.79c.22.28.38.68.65.78.76.28,1.56.47,2.1-.46.1-.15.42-.17.67-.26C191.29,187.32,192.32,187.31,192.51,186.78Z"/><path class="cls-19" d="M172.28,187.11c-.52.09-1,.18-1.4.24s-.89,0-1.2.15a1.42,1.42,0,0,1-1.41.08c-.34-.12-.92-.33-1.1.55l1.45.07c.34,0,.86-.12,1,.05.41.55.77.09,1.13,0a5.18,5.18,0,0,0,.9-.34C172.11,187.78,172.5,187.58,172.28,187.11Z"/><path class="cls-20" d="M165.44,178.48c.81,1.42,2.48,1.14,3.32,2.25.05.07.29,0,.44,0a1.77,1.77,0,0,0-.16-.34c-.29-.32-.59-.64-.9-.95a1.48,1.48,0,0,0-.48-.35c-.53-.2-1.08-.38-1.63-.54A2.92,2.92,0,0,0,165.44,178.48Z"/><path class="cls-21" d="M134.69,125.57A10.77,10.77,0,0,1,133,127a9.54,9.54,0,0,1-1.86.56,22,22,0,0,0,3.08-.28.78.78,0,0,0,.48-.49A5.41,5.41,0,0,0,134.69,125.57Z"/><path class="cls-22" d="M117.06,179.42c.47.3.74.45,1,.64s.59.53.84.1a1.82,1.82,0,0,0,.14-1c0-.18-.28-.33-.53-.61Z"/><path class="cls-23" d="M151.86,124.81,153,123c-.74-.62-1.41-.56-1.49.23A5,5,0,0,0,151.86,124.81Z"/><path class="cls-24" d="M133.78,132.74a1.65,1.65,0,0,0,1.11,1.14c.43.09.66-.1.61-.55C135.38,132.35,134.75,132.12,133.78,132.74Z"/><path class="cls-25" d="M148,124.49c-.8.12-1.26.79-1.14,1.8,0,.21.21.39.32.59.14-.17.35-.32.4-.51C147.7,125.76,147.81,125.15,148,124.49Z"/><path class="cls-26" d="M139.4,89.62c1.48-.4,2.52-1.42,2.1-2.05l-.46.77-.17-.85A2.77,2.77,0,0,1,139.4,89.62Z"/><path class="cls-27" d="M107.25,121.7c.86-.11,1-.78,1.35-1.43C107.49,120.51,107.05,121,107.25,121.7Z"/><path class="cls-28" d="M107.21,123.31c.51.24.24,1.17,1,1L108,123Z"/><path class="cls-29" d="M142.11,86.27c1.09-.35,1.2-.62.6-1.33Z"/><path class="cls-30" d="M152,122c.5-.71.46-.88-.19-1.22C151.4,121.36,151.4,121.39,152,122Z"/><path class="cls-31" d="M136.28,134.34c0,.79.41,1,1.18.53Z"/><path class="cls-32" d="M129,111.59c-.43-.82-.79-.33-1.16,0Z"/><path class="cls-32" d="M129,111.59h-1.16C128.16,111.26,128.52,110.77,129,111.59Z"/><path class="cls-33" d="M142.87,144.11l.16,2-.71-.17C142.91,145.88,143.07,145.07,142.87,144.11Z"/><path class="cls-34" d="M215.66,157.07c-.1.2-.17.55-.29.57a14.52,14.52,0,0,1-2.08.13C214,157.3,215.1,158.25,215.66,157.07Z"/><path class="cls-35" d="M148,151.72c-.72.51-.35,1.08-.09,1.64a2.22,2.22,0,0,1-.37-.67c-.14-.77-.57-.86-1.2-.59a6.44,6.44,0,0,1,.7-.24C147.37,151.79,147.69,151.76,148,151.72Z"/></g></g></svg>