<?xml version="1.0" encoding="UTF-8" standalone="no"?>
<svg xmlns="http://www.w3.org/2000/svg" xmlns:xlink="http://www.w3.org/1999/xlink" contentStyleType="text/css" height="235px" preserveAspectRatio="none" style="width:205px;height:235px;background:#FFFFFF;" version="1.1" viewBox="0 0 205 235" width="205px" zoomAndPan="magnify"><defs/><g><!--MD5=[cf4d6237fcae255cd2e1656cf84a30e2]
class Order--><g id="elem_Order"><rect codeLine="1" fill="#F1F1F1" height="80.5938" id="Order" rx="2.5" ry="2.5" style="stroke:#181818;stroke-width:0.5;" width="191" x="7" y="148"/><ellipse cx="77.75" cy="164" fill="#ADD1B2" rx="11" ry="11" style="stroke:#181818;stroke-width:1.0;"/><path d="M80.0938,159.6719 C79.1563,159.2344 78.5625,159.0938 77.6875,159.0938 C75.0625,159.0938 73.0625,161.1719 73.0625,163.8906 L73.0625,165.0156 C73.0625,167.5938 75.1719,169.4844 78.0625,169.4844 C79.2813,169.4844 80.4375,169.1875 81.1875,168.6406 C81.7656,168.2344 82.0938,167.7813 82.0938,167.3906 C82.0938,166.9375 81.7031,166.5469 81.2344,166.5469 C81.0156,166.5469 80.8125,166.625 80.625,166.8125 C80.1719,167.2969 80.1719,167.2969 79.9844,167.3906 C79.5625,167.6563 78.875,167.7813 78.1094,167.7813 C76.0625,167.7813 74.7656,166.6875 74.7656,164.9844 L74.7656,163.8906 C74.7656,162.1094 76.0156,160.7969 77.75,160.7969 C78.3281,160.7969 78.9375,160.9531 79.4063,161.2031 C79.8906,161.4844 80.0625,161.7031 80.1563,162.1094 C80.2188,162.5156 80.25,162.6406 80.3906,162.7656 C80.5313,162.9063 80.7656,163.0156 80.9844,163.0156 C81.25,163.0156 81.5156,162.875 81.6875,162.6563 C81.7969,162.5 81.8281,162.3125 81.8281,161.8906 L81.8281,160.4688 C81.8281,160.0313 81.8125,159.9063 81.7188,159.75 C81.5625,159.4844 81.2813,159.3438 80.9844,159.3438 C80.6875,159.3438 80.4844,159.4375 80.2656,159.75 L80.0938,159.6719 Z " fill="#000000"/><text fill="#000000" font-family="sans-serif" font-size="14" lengthAdjust="spacing" textLength="41" x="98.25" y="168.8467">Order</text><line style="stroke:#181818;stroke-width:0.5;" x1="8" x2="197" y1="180" y2="180"/><ellipse cx="18" cy="191" fill="none" rx="3" ry="3" style="stroke:#038048;stroke-width:1.0;"/><text fill="#000000" font-family="sans-serif" font-size="14" lengthAdjust="spacing" textLength="137" x="27" y="196.9951">Collection picklists</text><line style="stroke:#181818;stroke-width:0.5;" x1="8" x2="197" y1="204.2969" y2="204.2969"/><ellipse cx="18" cy="215.2969" fill="#84BE84" rx="3" ry="3" style="stroke:#038048;stroke-width:1.0;"/><text fill="#000000" font-family="sans-serif" font-size="14" lengthAdjust="spacing" textLength="165" x="27" y="221.292">Picklist createPicklist()</text></g><!--MD5=[09e23a8418cfd165f4a68c68987da7f6]
class Picklist--><g id="elem_Picklist"><rect codeLine="6" fill="#F1F1F1" height="64.2969" id="Picklist" rx="2.5" ry="2.5" style="stroke:#181818;stroke-width:0.5;" width="183" x="11" y="7"/><ellipse cx="72.25" cy="23" fill="#ADD1B2" rx="11" ry="11" style="stroke:#181818;stroke-width:1.0;"/><path d="M74.5938,18.6719 C73.6563,18.2344 73.0625,18.0938 72.1875,18.0938 C69.5625,18.0938 67.5625,20.1719 67.5625,22.8906 L67.5625,24.0156 C67.5625,26.5938 69.6719,28.4844 72.5625,28.4844 C73.7813,28.4844 74.9375,28.1875 75.6875,27.6406 C76.2656,27.2344 76.5938,26.7813 76.5938,26.3906 C76.5938,25.9375 76.2031,25.5469 75.7344,25.5469 C75.5156,25.5469 75.3125,25.625 75.125,25.8125 C74.6719,26.2969 74.6719,26.2969 74.4844,26.3906 C74.0625,26.6563 73.375,26.7813 72.6094,26.7813 C70.5625,26.7813 69.2656,25.6875 69.2656,23.9844 L69.2656,22.8906 C69.2656,21.1094 70.5156,19.7969 72.25,19.7969 C72.8281,19.7969 73.4375,19.9531 73.9063,20.2031 C74.3906,20.4844 74.5625,20.7031 74.6563,21.1094 C74.7188,21.5156 74.75,21.6406 74.8906,21.7656 C75.0313,21.9063 75.2656,22.0156 75.4844,22.0156 C75.75,22.0156 76.0156,21.875 76.1875,21.6563 C76.2969,21.5 76.3281,21.3125 76.3281,20.8906 L76.3281,19.4688 C76.3281,19.0313 76.3125,18.9063 76.2188,18.75 C76.0625,18.4844 75.7813,18.3438 75.4844,18.3438 C75.1875,18.3438 74.9844,18.4375 74.7656,18.75 L74.5938,18.6719 Z " fill="#000000"/><text fill="#000000" font-family="sans-serif" font-size="14" lengthAdjust="spacing" textLength="52" x="92.75" y="27.8467">Picklist</text><line style="stroke:#181818;stroke-width:0.5;" x1="12" x2="193" y1="39" y2="39"/><ellipse cx="22" cy="50" fill="none" rx="3" ry="3" style="stroke:#038048;stroke-width:1.0;"/><text fill="#000000" font-family="sans-serif" font-size="14" lengthAdjust="spacing" textLength="157" x="31" y="55.9951">Collection orderItems</text><line style="stroke:#181818;stroke-width:0.5;" x1="12" x2="193" y1="63.2969" y2="63.2969"/></g><!--MD5=[30980234824ccea0a4259afc85c57e70]
link Picklist to Order--><g id="link_Picklist_Order"><path codeLine="11" d="M102.5,71.281 C102.5,89.682 102.5,113.433 102.5,134.6639 " fill="none" id="Picklist-to-Order" style="stroke:#181818;stroke-width:1.0;"/><polygon fill="#181818" points="102.5,147.8272,106.5,141.8272,102.5,135.8272,98.5,141.8272,102.5,147.8272" style="stroke:#181818;stroke-width:1.0;"/><text fill="#000000" font-family="sans-serif" font-size="13" lengthAdjust="spacing" textLength="80" x="103.5" y="114.0669">Composition</text><text fill="#000000" font-family="sans-serif" font-size="13" lengthAdjust="spacing" textLength="65" x="30.7969" y="91.5358">1,...,many</text><text fill="#000000" font-family="sans-serif" font-size="13" lengthAdjust="spacing" textLength="8" x="93.8375" y="136.9601">1</text></g><!--MD5=[f37dca8d10db5b5e50c418f1c3cd4031]
@startuml
class Order {
  +Collection picklists
  +Picklist createPicklist()
}

class Picklist {
  +Collection orderItems
}


Order "1" *-up- "1,...,many" Picklist: Composition
@enduml

PlantUML version 1.2022.3beta2(Unknown compile time)
(GPL source distribution)
Java Runtime: Java(TM) SE Runtime Environment
JVM: Java HotSpot(TM) 64-Bit Server VM
Default Encoding: UTF-8
Language: en
Country: US
--></g></svg>