<?xml version="1.0" encoding="UTF-8"?>
<svg xmlns="http://www.w3.org/2000/svg" id="svg" version="1.1" width="400" height="283.2348747199022"
     viewBox="0, 0, 400,283.2348747199022"><g id="svgg"><path id="path0" d="M141.244 140.329 C 140.465 140.636,140.448 140.768,140.067 149.889 L 139.964 152.361 139.524 151.951 C 137.111 149.701,132.529 149.029,129.981 150.550 C 127.249 152.180,126.597 156.840,128.544 160.821 C 130.659 165.149,137.091 167.468,139.844 164.896 L 140.272 164.496 140.634 165.297 C 141.404 167.000,142.896 167.765,143.820 166.929 C 144.220 166.566,144.277 165.799,143.925 165.507 C 143.045 164.777,142.753 154.880,143.322 145.033 C 143.505 141.854,143.499 141.440,143.263 141.080 C 142.843 140.439,141.878 140.080,141.244 140.329 M265.042 149.742 C 263.378 150.121,261.885 150.946,260.593 152.201 C 259.957 152.819,259.429 153.308,259.420 153.288 C 259.281 152.973,258.404 151.960,258.154 151.826 C 257.112 151.269,255.374 153.273,256.261 154.009 C 257.132 154.732,257.261 157.888,256.910 169.861 L 256.804 173.473 257.221 173.747 C 257.781 174.114,258.767 173.925,259.353 173.339 L 259.796 172.896 259.919 169.198 C 259.987 167.164,260.090 165.500,260.147 165.500 C 260.205 165.500,260.514 165.577,260.834 165.671 C 265.435 167.020,271.146 163.524,272.310 158.647 C 273.753 152.599,270.422 148.518,265.042 149.742 M217.886 151.410 C 217.225 151.698,217.121 152.047,216.724 155.320 L 216.423 157.801 215.195 157.863 C 212.798 157.984,212.680 160.150,215.063 160.302 L 216.167 160.372 216.167 163.239 C 216.167 169.676,217.487 172.089,220.845 171.787 C 223.163 171.579,225.114 169.293,224.772 167.187 C 224.495 165.477,222.580 165.837,222.216 167.668 C 221.912 169.194,221.145 169.733,220.208 169.077 C 219.520 168.595,219.295 167.374,219.209 163.650 L 219.130 160.216 220.538 160.128 C 222.236 160.022,222.618 159.845,222.758 159.099 C 222.960 158.025,222.692 157.833,220.994 157.833 C 219.685 157.833,219.500 157.797,219.500 157.543 C 219.500 157.383,219.665 156.061,219.867 154.605 L 220.235 151.958 219.775 151.562 C 219.258 151.117,218.669 151.070,217.886 151.410 M267.458 152.423 C 270.834 153.834,270.118 160.674,266.381 162.708 C 264.802 163.568,262.330 163.655,260.755 162.908 L 260.167 162.629 260.167 159.559 C 260.167 156.155,260.244 155.801,261.249 154.574 C 262.789 152.695,265.697 151.687,267.458 152.423 M137.077 153.064 C 137.867 153.454,138.574 153.973,139.154 154.586 L 140.033 155.515 139.970 158.299 C 139.898 161.459,139.784 161.838,138.652 162.658 C 135.703 164.794,131.101 162.086,130.504 157.862 C 129.865 153.344,133.006 151.052,137.077 153.064 M244.917 153.275 C 239.523 154.419,236.325 159.940,237.965 165.273 C 239.992 171.859,251.476 170.024,253.583 162.777 C 255.370 156.630,251.111 151.960,244.917 153.275 M152.108 153.331 C 145.446 154.532,145.085 164.483,151.566 168.245 C 155.092 170.291,160.254 169.643,161.538 166.992 C 162.361 165.292,160.478 164.482,158.816 165.821 C 155.731 168.307,150.383 166.079,149.737 162.039 L 149.632 161.384 151.774 161.696 C 162.260 163.222,162.333 163.217,162.333 160.958 C 162.333 156.222,157.222 152.410,152.108 153.331 M248.035 155.759 C 251.303 156.873,251.879 162.630,248.984 165.233 C 246.201 167.735,241.816 167.144,240.926 164.146 C 239.446 159.163,243.610 154.252,248.035 155.759 M156.875 156.291 C 158.682 157.139,159.833 158.563,159.833 159.949 C 159.833 160.625,160.205 160.620,155.333 160.000 C 153.179 159.726,151.016 159.452,150.526 159.393 C 149.636 159.284,149.635 159.283,149.738 158.770 C 150.258 156.166,153.909 154.898,156.875 156.291 M183.149 156.354 C 181.849 156.488,180.479 157.092,179.679 157.881 L 179.109 158.443 178.429 157.430 C 177.605 156.200,176.777 155.967,175.950 156.734 C 175.391 157.252,175.383 157.647,175.916 158.432 C 176.716 159.610,176.727 159.799,176.536 169.000 C 176.337 178.639,176.296 178.251,177.544 178.568 C 179.190 178.985,179.376 178.562,179.463 174.208 C 179.502 172.260,179.566 170.667,179.605 170.667 C 179.645 170.667,180.057 170.859,180.522 171.094 C 186.423 174.085,192.050 171.117,192.293 164.887 C 192.516 159.201,188.831 155.763,183.149 156.354 M201.018 156.669 C 196.120 157.704,193.580 163.079,195.528 168.287 C 197.599 173.822,208.052 173.928,210.596 168.440 C 213.631 161.893,208.154 155.161,201.018 156.669 M186.256 159.111 C 190.081 160.414,190.436 167.559,186.762 169.270 C 184.844 170.163,180.316 169.165,179.765 167.728 C 179.524 167.100,179.664 161.823,179.936 161.283 C 180.970 159.233,183.780 158.267,186.256 159.111 M205.417 159.416 C 209.203 161.269,209.322 167.626,205.604 169.492 C 201.044 171.780,196.745 167.786,198.264 162.671 C 199.183 159.576,202.581 158.029,205.417 159.416 " stroke="none" fill="#fbfbfb" fill-rule="evenodd"></path><path id="path1" d="M190.917 73.997 C 155.103 74.994,130.892 81.322,122.393 91.909 C 120.494 94.274,120.305 94.822,119.344 100.750 C 115.299 125.700,111.995 147.021,108.391 171.417 C 106.775 182.351,107.010 184.373,110.365 188.439 C 119.645 199.685,151.289 207.154,198.417 209.222 C 203.887 209.462,223.223 208.035,235.500 206.485 C 273.153 201.732,292.711 192.852,292.683 180.521 C 292.676 177.522,288.994 152.732,282.580 112.500 C 280.032 96.518,279.857 95.536,279.396 94.624 C 272.327 80.648,238.160 72.683,190.917 73.997 M209.917 81.166 C 242.250 82.494,263.800 89.240,269.096 99.691 C 272.154 105.727,262.966 112.738,246.167 117.186 C 245.112 117.465,243.200 117.980,241.917 118.332 C 232.217 120.987,229.747 120.072,228.742 113.453 C 227.836 107.480,226.982 104.878,224.895 101.719 C 222.596 98.241,219.419 95.959,214.917 94.554 L 213.417 94.086 200.583 94.037 C 186.298 93.982,186.599 93.963,183.500 95.115 C 176.822 97.598,172.771 103.335,171.517 112.083 C 170.248 120.931,168.504 121.381,152.833 116.904 C 136.527 112.246,128.032 105.645,130.863 99.833 C 136.044 89.198,158.636 82.214,191.417 81.112 C 195.096 80.988,206.390 81.021,209.917 81.166 M142.380 140.394 C 143.593 140.907,143.570 140.770,143.331 145.954 C 143.214 148.500,143.111 153.547,143.101 157.169 L 143.083 163.755 143.661 164.919 C 144.313 166.233,144.320 166.430,143.732 166.958 C 142.820 167.778,141.492 167.139,140.706 165.502 L 140.227 164.502 139.756 164.994 C 137.874 166.958,133.186 166.021,130.235 163.090 C 126.266 159.147,126.437 151.930,130.541 150.165 C 132.964 149.123,137.254 149.891,139.293 151.733 L 139.961 152.337 140.078 148.960 C 140.233 144.487,140.442 141.154,140.592 140.778 C 140.817 140.209,141.566 140.049,142.380 140.394 M269.417 149.979 C 274.265 152.139,273.576 160.932,268.292 164.347 C 266.013 165.820,262.385 166.380,260.301 165.580 C 260.088 165.498,260.038 165.999,259.949 169.097 C 259.824 173.392,259.559 174.000,257.810 174.000 C 256.823 174.000,256.853 174.341,256.957 164.420 C 257.061 154.441,257.136 155.381,256.113 153.819 C 255.768 153.292,256.121 152.492,256.915 152.001 C 257.738 151.492,258.069 151.575,258.855 152.488 L 259.563 153.309 259.990 152.747 C 261.974 150.138,266.674 148.757,269.417 149.979 M219.579 151.362 C 220.217 151.652,220.255 152.143,219.857 154.991 C 219.658 156.417,219.497 157.650,219.498 157.732 C 219.499 157.816,220.065 157.834,220.795 157.773 C 222.369 157.642,222.833 157.863,222.833 158.741 C 222.833 159.691,222.409 160.021,221.077 160.109 C 218.969 160.249,219.166 159.963,219.170 162.878 C 219.175 166.973,219.558 168.777,220.505 169.169 C 221.345 169.517,222.167 168.752,222.167 167.622 C 222.167 166.772,222.753 166.167,223.576 166.167 C 225.820 166.167,224.880 170.217,222.351 171.443 C 218.271 173.420,215.598 169.415,216.078 162.042 L 216.189 160.333 215.215 160.333 C 213.895 160.333,213.500 160.046,213.500 159.083 C 213.500 158.107,213.890 157.833,215.280 157.833 L 216.318 157.833 216.407 157.292 C 216.457 156.994,216.618 155.813,216.766 154.667 C 217.193 151.373,217.867 150.582,219.579 151.362 M264.705 152.416 C 261.289 153.372,260.140 155.192,260.205 159.544 L 260.250 162.583 260.917 162.909 C 264.126 164.476,268.364 162.411,269.265 158.841 C 270.378 154.433,268.244 151.426,264.705 152.416 M132.926 152.582 C 128.961 153.995,130.018 161.340,134.423 162.988 C 137.977 164.318,139.728 162.823,139.918 158.296 L 140.035 155.508 139.059 154.535 C 137.299 152.778,134.699 151.950,132.926 152.582 M249.502 153.318 C 253.047 154.382,254.865 158.781,253.540 163.083 C 251.345 170.208,239.881 171.733,237.873 165.167 C 235.744 158.202,242.579 151.239,249.502 153.318 M155.579 153.419 C 159.541 154.258,162.149 157.048,162.305 160.614 C 162.390 162.544,162.218 162.833,160.985 162.833 C 160.233 162.833,153.409 162.014,151.250 161.664 C 149.650 161.405,149.608 161.416,149.733 162.038 C 150.559 166.170,156.045 168.332,158.938 165.665 C 160.712 164.030,162.808 165.787,161.182 167.545 C 157.861 171.136,150.583 169.586,148.062 164.750 C 144.628 158.163,148.736 151.969,155.579 153.419 M245.014 155.755 C 239.826 157.206,238.959 165.560,243.881 166.659 C 247.524 167.473,250.750 164.660,250.750 160.670 C 250.750 156.811,248.409 154.805,245.014 155.755 M152.582 155.955 C 151.385 156.385,150.603 157.048,150.058 158.094 C 149.480 159.208,149.488 159.216,151.552 159.474 C 152.394 159.580,154.542 159.854,156.325 160.083 C 159.969 160.551,159.969 160.551,159.679 159.386 C 159.030 156.780,155.304 154.979,152.582 155.955 M177.728 156.512 C 177.969 156.702,178.362 157.191,178.601 157.598 L 179.034 158.338 179.635 157.811 C 184.025 153.956,191.513 157.056,192.343 163.071 C 193.316 170.112,187.164 174.374,180.625 171.190 L 179.667 170.724 179.651 171.153 C 179.643 171.390,179.586 173.034,179.526 174.807 C 179.403 178.430,179.313 178.667,178.057 178.667 C 176.249 178.667,176.306 179.020,176.505 169.170 C 176.688 160.089,176.660 159.605,175.899 158.447 C 174.982 157.054,176.447 155.505,177.728 156.512 M205.547 156.762 C 213.382 158.792,213.507 170.222,205.718 172.251 C 200.809 173.530,196.078 171.176,195.085 166.962 C 193.516 160.307,198.915 155.044,205.547 156.762 M182.647 159.054 C 181.644 159.428,180.828 160.011,180.317 160.715 L 179.833 161.383 179.833 164.607 L 179.833 167.831 180.518 168.327 C 183.663 170.605,187.680 169.909,188.840 166.885 C 190.646 162.176,186.916 157.458,182.647 159.054 M201.204 159.269 C 198.798 160.153,197.416 163.786,198.311 166.868 C 199.437 170.740,205.707 171.199,207.606 167.549 C 210.033 162.884,205.903 157.543,201.204 159.269 " stroke="none" fill="#94b4bc" fill-rule="evenodd"></path><path id="path2" d="M269.539 156.667 C 269.539 156.987,269.573 157.119,269.615 156.958 C 269.657 156.798,269.657 156.535,269.615 156.375 C 269.573 156.215,269.539 156.346,269.539 156.667 M257.055 160.083 C 257.055 160.725,257.086 160.967,257.122 160.621 C 257.158 160.275,257.157 159.750,257.120 159.455 C 257.083 159.159,257.054 159.442,257.055 160.083 M139.875 159.917 C 139.877 160.283,139.911 160.414,139.951 160.206 C 139.991 159.999,139.990 159.699,139.948 159.540 C 139.906 159.380,139.874 159.550,139.875 159.917 M179.723 162.833 C 179.723 163.521,179.752 163.802,179.788 163.458 C 179.824 163.115,179.824 162.552,179.788 162.208 C 179.752 161.865,179.723 162.146,179.723 162.833 M192.372 164.500 C 192.372 164.821,192.406 164.952,192.448 164.792 C 192.490 164.631,192.490 164.369,192.448 164.208 C 192.406 164.048,192.372 164.179,192.372 164.500 M176.548 167.083 C 176.549 167.542,176.581 167.709,176.620 167.456 C 176.658 167.203,176.657 166.828,176.617 166.623 C 176.578 166.418,176.546 166.625,176.548 167.083 M179.539 171.167 C 179.539 171.487,179.573 171.619,179.615 171.458 C 179.657 171.298,179.657 171.035,179.615 170.875 C 179.573 170.715,179.539 170.846,179.539 171.167 " stroke="none" fill="#cedcde" fill-rule="evenodd"></path><path id="path3" d="M257.059 157.583 C 257.059 158.408,257.087 158.767,257.122 158.380 C 257.157 157.993,257.157 157.318,257.123 156.880 C 257.088 156.442,257.060 156.758,257.059 157.583 M216.048 163.417 C 216.049 163.875,216.081 164.043,216.120 163.789 C 216.158 163.536,216.157 163.161,216.117 162.956 C 216.078 162.751,216.046 162.958,216.048 163.417 M179.718 164.917 C 179.719 165.467,179.750 165.672,179.787 165.372 C 179.825 165.072,179.824 164.622,179.786 164.372 C 179.748 164.122,179.717 164.367,179.718 164.917 " stroke="none" fill="#c4d4d4" fill-rule="evenodd"></path><path id="path4" d="M143.039 153.667 C 143.039 153.987,143.073 154.119,143.115 153.958 C 143.157 153.798,143.157 153.535,143.115 153.375 C 143.073 153.215,143.039 153.346,143.039 153.667 M211.372 164.667 C 211.372 164.987,211.406 165.119,211.448 164.958 C 211.490 164.798,211.490 164.535,211.448 164.375 C 211.406 164.215,211.372 164.346,211.372 164.667 M176.539 165.167 C 176.539 165.487,176.573 165.619,176.615 165.458 C 176.657 165.298,176.657 165.035,176.615 164.875 C 176.573 164.715,176.539 164.846,176.539 165.167 M179.718 166.750 C 179.719 167.300,179.750 167.505,179.787 167.205 C 179.825 166.906,179.824 166.456,179.786 166.205 C 179.748 165.955,179.717 166.200,179.718 166.750 " stroke="none" fill="#b5c5cc" fill-rule="evenodd"></path></g></svg>
