<?xml version="1.0" encoding="UTF-8"?>
<svg xmlns="http://www.w3.org/2000/svg" width="1704" zoomAndPan="magnify" viewBox="0 0 1278 223.499994" height="298"
     preserveAspectRatio="xMidYMid meet" version="1.0">
  <defs>
    <clipPath id="00f8ba2c28">
      <path d="M 1149 71 L 1276.574219 71 L 1276.574219 207 L 1149 207 Z M 1149 71 " clip-rule="nonzero"></path>
    </clipPath>
    <clipPath id="6c5b37b089">
      <path d="M 1.425781 0 L 224 0 L 224 223 L 1.425781 223 Z M 1.425781 0 " clip-rule="nonzero"></path>
    </clipPath>
  </defs>
  <path fill="#10062f" d="M 298.398438 75.410156 L 298.398438 96.03125 L 302.007812 96.03125 C 307.164062 84.171875 319.023438 73.351562 342.476562 73.351562 C 370.835938 73.351562 392.230469 93.710938 392.230469 126.976562 L 392.230469 203.28125 L 359.746094 203.28125 L 359.746094 130.066406 C 359.746094 112.277344 349.433594 101.710938 330.871094 101.710938 C 309.992188 101.710938 298.902344 114.605469 298.902344 137.289062 L 298.902344 203.28125 L 266.421875 203.28125 L 266.421875 75.417969 L 298.390625 75.417969 Z M 298.398438 75.410156 " fill-opacity="1" fill-rule="nonzero"></path>
  <path fill="#10062f" d="M 422.914062 16.117188 C 435.800781 16.117188 445.855469 25.144531 445.855469 38.292969 C 445.855469 51.441406 435.808594 60.464844 422.914062 60.464844 C 410.019531 60.464844 399.960938 51.441406 399.960938 38.292969 C 399.960938 25.144531 410.011719 16.117188 422.914062 16.117188 Z M 439.152344 203.273438 L 406.667969 203.273438 L 406.667969 75.410156 L 439.152344 75.410156 Z M 439.152344 203.273438 " fill-opacity="1" fill-rule="nonzero"></path>
  <path fill="#10062f" d="M 487.097656 75.410156 L 487.097656 96.03125 L 490.703125 96.03125 C 495.859375 84.171875 507.722656 73.351562 531.171875 73.351562 C 559.535156 73.351562 580.929688 93.710938 580.929688 126.976562 L 580.929688 203.28125 L 548.445312 203.28125 L 548.445312 130.066406 C 548.445312 112.277344 538.132812 101.710938 519.566406 101.710938 C 498.6875 101.710938 487.597656 114.605469 487.597656 137.289062 L 487.597656 203.28125 L 455.113281 203.28125 L 455.113281 75.417969 L 487.089844 75.417969 Z M 487.097656 75.410156 " fill-opacity="1" fill-rule="nonzero"></path>
  <path fill="#10062f" d="M 654.917969 71.800781 C 689.722656 71.800781 712.402344 91.65625 712.402344 121.558594 L 712.402344 203.273438 L 680.433594 203.273438 L 680.433594 185.226562 L 676.828125 185.226562 C 672.695312 193.734375 663.679688 206.882812 636.613281 206.882812 C 607.734375 206.882812 588.667969 191.414062 588.667969 166.921875 C 588.667969 146.558594 606.457031 132.378906 630.949219 129.796875 L 679.933594 124.386719 L 679.933594 121.289062 C 679.933594 109.179688 670.652344 99.632812 653.121094 99.632812 C 635.585938 99.632812 625.539062 108.402344 617.546875 121.804688 L 591.257812 104.789062 C 606.46875 85.714844 623.742188 71.792969 654.933594 71.792969 Z M 644.605469 180.070312 C 667.285156 180.070312 679.925781 166.667969 679.925781 149.132812 L 679.925781 147.074219 L 640.734375 151.714844 C 628.628906 153.265625 622.695312 157.640625 622.695312 165.117188 C 622.695312 173.886719 630.167969 180.070312 644.605469 180.070312 Z M 644.605469 180.070312 " fill-opacity="1" fill-rule="nonzero"></path>
  <path fill="#10062f" d="M 874.664062 71.464844 C 910.238281 71.464844 932.410156 91.316406 939.109375 120.449219 L 907.140625 128.695312 C 904.820312 113.230469 894.769531 100.335938 875.171875 100.335938 C 855.574219 100.335938 840.628906 115.804688 840.628906 139.007812 C 840.628906 162.214844 854.292969 177.683594 875.171875 177.683594 C 894.761719 177.683594 903.789062 166.335938 907.140625 149.582031 L 939.109375 157.574219 C 932.921875 186.707031 910.492188 206.554688 874.664062 206.554688 C 838.832031 206.554688 808.152344 178.714844 808.152344 139.007812 C 808.152344 99.304688 837.546875 71.472656 874.664062 71.472656 Z M 874.664062 71.464844 " fill-opacity="1" fill-rule="nonzero"></path>
  <path fill="#10062f" d="M 1005.875 71.464844 C 1040.671875 71.464844 1063.359375 91.3125 1063.359375 121.222656 L 1063.359375 202.9375 L 1031.390625 202.9375 L 1031.390625 184.890625 L 1027.785156 184.890625 C 1023.660156 193.398438 1014.644531 206.546875 987.570312 206.546875 C 958.699219 206.546875 939.617188 191.078125 939.617188 166.585938 C 939.617188 146.222656 957.40625 132.042969 981.898438 129.46875 L 1030.875 124.058594 L 1030.875 120.96875 C 1030.875 108.851562 1021.597656 99.308594 1004.070312 99.308594 C 986.546875 99.308594 976.488281 108.074219 968.496094 121.476562 L 942.207031 104.457031 C 957.414062 85.382812 974.691406 71.464844 1005.882812 71.464844 Z M 995.5625 179.742188 C 1018.242188 179.742188 1030.882812 166.335938 1030.882812 148.804688 L 1030.882812 146.738281 L 991.699219 151.378906 C 979.585938 152.921875 973.652344 157.304688 973.652344 164.78125 C 973.652344 173.550781 981.128906 179.742188 995.570312 179.742188 Z M 995.5625 179.742188 " fill-opacity="1" fill-rule="nonzero"></path>
  <path fill="#10062f" d="M 1109.765625 93.628906 L 1113.371094 93.628906 C 1118.273438 79.449219 1129.09375 74.554688 1145.339844 74.554688 L 1157.710938 74.554688 L 1157.710938 103.941406 L 1138.632812 103.941406 C 1122.132812 103.941406 1110.28125 112.710938 1110.28125 130.746094 L 1110.28125 202.929688 L 1077.796875 202.929688 L 1077.796875 75.066406 L 1109.765625 75.066406 Z M 1109.765625 93.628906 " fill-opacity="1" fill-rule="nonzero"></path>
  <g clip-path="url(#00f8ba2c28)">
    <path fill="#10062f" d="M 1213.910156 71.464844 C 1251.027344 71.464844 1276.035156 97.5 1276.035156 135.910156 L 1276.035156 148.542969 L 1182.972656 148.542969 C 1184.261719 165.550781 1196.375 178.699219 1214.941406 178.699219 C 1233.507812 178.699219 1242.523438 168.644531 1246.910156 159.625 L 1273.460938 175.09375 C 1264.691406 188.496094 1249.746094 206.546875 1215.457031 206.546875 C 1177.308594 206.546875 1149.71875 177.675781 1149.71875 137.976562 C 1149.71875 98.277344 1176.269531 71.464844 1213.910156 71.464844 Z M 1243.042969 125.859375 C 1240.722656 109.621094 1230.410156 99.308594 1213.65625 99.308594 C 1195.351562 99.308594 1185.808594 110.136719 1183.234375 125.859375 Z M 1243.042969 125.859375 " fill-opacity="1" fill-rule="nonzero"></path>
  </g>
  <path fill="#10062f" d="M 760.085938 157.539062 C 774.011719 157.539062 784.578125 167.59375 784.578125 182.03125 C 784.578125 196.464844 774.003906 206.523438 760.085938 206.523438 C 746.167969 206.523438 735.59375 196.464844 735.59375 182.03125 C 735.59375 167.59375 746.167969 157.539062 760.085938 157.539062 Z M 760.085938 157.539062 " fill-opacity="1" fill-rule="nonzero"></path>
  <g clip-path="url(#6c5b37b089)">
    <path fill="#dad6ff" d="M 195.101562 0.628906 L 30.574219 0.628906 C 14.769531 0.628906 1.957031 13.441406 1.957031 29.238281 L 1.957031 193.765625 C 1.957031 209.570312 14.769531 222.371094 30.574219 222.371094 L 195.101562 222.371094 C 210.90625 222.371094 223.710938 209.5625 223.710938 193.765625 L 223.710938 29.238281 C 223.710938 13.433594 210.898438 0.628906 195.101562 0.628906 Z M 195.101562 0.628906 " fill-opacity="1" fill-rule="nonzero"></path>
  </g>
  <path fill="#affff4" d="M 124.023438 29.265625 L 118.066406 29.265625 C 95.992188 29.265625 78.101562 47.160156 78.101562 69.234375 L 78.101562 153.765625 C 78.101562 175.839844 95.992188 193.734375 118.066406 193.734375 L 124.023438 193.734375 C 146.101562 193.734375 163.992188 175.839844 163.992188 153.765625 L 163.992188 69.234375 C 163.992188 47.160156 146.101562 29.265625 124.023438 29.265625 Z M 124.023438 29.265625 " fill-opacity="1" fill-rule="nonzero"></path>
  <path fill="#a198ff" d="M 78.09375 162.558594 C 103.582031 162.558594 124.242188 141.898438 124.242188 116.410156 C 124.242188 90.921875 103.582031 70.261719 78.09375 70.261719 C 52.605469 70.261719 31.941406 90.921875 31.941406 116.410156 C 31.941406 141.898438 52.605469 162.558594 78.09375 162.558594 Z M 78.09375 162.558594 " fill-opacity="1" fill-rule="nonzero"></path>
  <path fill="#b1a9ff" d="M 78.101562 116.410156 L 78.191406 70.261719 C 103.46875 70.3125 124.25 91.125 124.25 116.410156 C 124.25 141.695312 103.414062 162.558594 78.101562 162.558594 Z M 78.101562 116.410156 " fill-opacity="1" fill-rule="nonzero"></path>
</svg>
